<?xml version="1.0" encoding="UTF-8"?>
<!DOCTYPE svg PUBLIC "-//W3C//DTD SVG 1.1//EN" "http://www.w3.org/Graphics/SVG/1.1/DTD/svg11.dtd">
<!-- Creator: CorelDRAW 2020 (64-Bit) -->
<svg xmlns="http://www.w3.org/2000/svg" xml:space="preserve" width="2.0318mm" height="2.0318mm" version="1.1" style="shape-rendering:geometricPrecision; text-rendering:geometricPrecision; image-rendering:optimizeQuality; fill-rule:evenodd; clip-rule:evenodd"
viewBox="0 0 203.18 203.18"
 xmlns:xlink="http://www.w3.org/1999/xlink"
 xmlns:xodm="http://www.corel.com/coreldraw/odm/2003">
 <defs>
  <style type="text/css">
   <![CDATA[
    .str0 {stroke:white;stroke-width:7.62;stroke-miterlimit:22.9256}
    .fil0 {fill:none}
    .fil1 {fill:white;fill-rule:nonzero}
   ]]>
  </style>
 </defs>
 <g id="Capa_x0020_1">
  <metadata id="CorelCorpID_0Corel-Layer"/>
  <g id="_2689383332736">
   <rect class="fil0 str0" x="-23.63" y="-27.14" width="254.39" height="253.54"/>
   <path class="fil1" d="M74.27 14.01l0 119.62c0,18.37 -1.5,32.37 -4.59,41.96 -3.04,9.59 -9,17.19 -17.86,22.84 -8.87,5.6 -20.87,8.4 -36.04,8.4 -13.36,0 -25.4,-1.52 -36.17,-4.56l0 -45.28c7.55,2.28 14.6,3.41 21.13,3.41 7.76,0 13.23,-1.94 16.5,-5.79 3.26,-3.84 4.89,-10.82 4.89,-20.93l0 -79.58 -31.39 0 0.65 -40.09 82.88 0zm10.67 134.76l50.28 -9.73c4.24,15.38 15.05,23.07 32.56,23.07 13.58,0 20.37,-3.89 20.37,-11.68 0,-4.08 -1.58,-7.26 -4.71,-9.49 -3.14,-2.28 -8.74,-4.32 -16.85,-6.03 -30.88,-6.36 -50.73,-14.71 -59.51,-24.97 -8.77,-10.3 -13.14,-22.4 -13.14,-36.31 0,-17.9 6.31,-32.8 18.92,-44.67 12.61,-11.87 36.13,-19.41 59.81,-18.86 18.9,0.43 37.63,3.19 54.31,7.21l-0.37 45.09c-17.58,-9.32 -35.42,-12.13 -49.61,-12.92 -23,-1.27 -29.34,7.77 -29.34,15.65 0,3.52 1.32,6.27 4.02,8.22 2.64,1.94 7.8,3.75 15.48,5.5 21.13,4.7 36.05,9.06 44.99,12.53 5.42,2.11 14.66,3.48 14.65,9.55l-0.13 83.21c0,2.28 -3.33,3.22 -5.17,4.74 -14.46,11.97 -33.48,17.95 -56.99,17.95 -42.96,0 -69.51,-19.37 -79.57,-58.06z"/>
  </g>
 </g>
</svg>
