<?xml version="1.0" encoding="UTF-8"?>
<!DOCTYPE svg PUBLIC "-//W3C//DTD SVG 1.1//EN" "http://www.w3.org/Graphics/SVG/1.1/DTD/svg11.dtd">
<!-- Creator: CorelDRAW 2020 (64-Bit) -->
<svg xmlns="http://www.w3.org/2000/svg" xml:space="preserve" width="2.0318mm" height="2.0318mm" version="1.1" style="shape-rendering:geometricPrecision; text-rendering:geometricPrecision; image-rendering:optimizeQuality; fill-rule:evenodd; clip-rule:evenodd"
viewBox="0 0 203.18 203.18"
 xmlns:xlink="http://www.w3.org/1999/xlink"
 xmlns:xodm="http://www.corel.com/coreldraw/odm/2003">
 <defs>
  <style type="text/css">
   <![CDATA[
    .fil2 {fill:#BDBFC1}
    .fil0 {fill:#243251}
    .fil3 {fill:#062054}
    .fil1 {fill:#221E1F}
   ]]>
  </style>
 </defs>
 <g id="Capa_x0020_1">
  <metadata id="CorelCorpID_0Corel-Layer"/>
  <g id="_2222343969840">
   <path class="fil0" d="M127.12 79.4c-1.09,-1.23 -2.14,-0.86 -3.82,-0.84 -6.28,0.07 -12.59,0.01 -18.87,0.01 -9.94,0 -8.12,-0.77 -13.04,-5.7 -2.8,-2.8 -10.08,-10.66 -12.03,-11.73 -1.08,-0.6 -2.05,-1.01 -3.28,-1.28 -2.6,-0.57 -25.07,-0.42 -27.86,-0.28 -5.51,0.28 -8.68,4.3 -8.7,10.02 -0.02,6.21 -0.11,12.58 0.02,18.79 8.16,0.63 18.75,0.06 27.16,0.06l81.74 0c8.52,0 18.48,-1.61 23.03,4.23 3.29,4.21 3.98,15.83 4.94,22.3l6.2 41.64c0.15,1.07 0.3,2 0.45,3.08l0.76 2.69c0.37,-10.34 0.05,-21.25 0.05,-31.65 0,-10.36 0,-20.73 0,-31.09 0,-10.91 2.15,-21.09 -10.63,-21.09 -10.36,0 -20.72,0.01 -31.09,0.01 -1.09,0.23 -3.57,4.12 -4.22,4.99 -2.04,2.72 -2.48,4.21 -4.64,4.21l-6.17 -8.37z"/>
   <path class="fil1" d="M23.71 96.55c1.87,-6.27 9.16,-5.54 13.3,-5.54l113.18 0c5.85,0 13.06,-0.86 17.59,1.6 2.81,2.76 3.26,3.3 4,8.52l8.14 54.73c0.71,4.66 3.42,18.03 2.23,21.69 -2.23,5.88 -6.33,6.15 -13.45,6.15l-117.37 0c-6.86,0 -11.48,-0.7 -12.9,-6.85 -1.35,-3.21 -3.22,-15.4 -4.09,-19.65l-8.16 -40.11c-0.81,-4.01 -4.46,-17.62 -2.47,-20.54zm109.58 -8.78c2.16,0 2.6,-1.49 4.64,-4.21 0.65,-0.87 3.13,-4.76 4.22,-4.99 10.37,0 20.73,-0.01 31.09,-0.01 12.78,0 10.63,10.18 10.63,21.09 0,10.36 0,20.73 0,31.09 0,10.4 0.32,21.31 -0.05,31.65l-0.76 -2.69c-0.15,-1.08 -0.3,-2.01 -0.45,-3.08l-6.2 -41.64c-0.96,-6.47 -1.65,-18.09 -4.94,-22.3 -4.55,-5.84 -14.51,-4.23 -23.03,-4.23l-81.74 0c-8.41,0 -19,0.57 -27.16,-0.06 -0.13,-6.21 -0.04,-12.58 -0.02,-18.79 0.02,-5.72 3.19,-9.74 8.7,-10.02 2.79,-0.14 25.26,-0.29 27.86,0.28 1.23,0.27 2.2,0.68 3.28,1.28 1.95,1.07 9.23,8.93 12.03,11.73 4.92,4.93 3.1,5.7 13.04,5.7 6.28,0 12.59,0.06 18.87,-0.01 1.68,-0.02 2.73,-0.39 3.82,0.84l6.17 8.37zm-16.19 -30.55c2.24,0 4.97,0.26 6.68,-0.44l0.09 -32.8 20.22 0.04c0.75,4.92 -0.57,31.16 0.33,32.51 1.65,1.27 7.15,0.7 9.77,0.71l-17.5 23.67c-0.82,1.1 -1.61,2.36 -2.57,3.31 -0.06,-0.05 -0.15,-0.12 -0.18,-0.16l-0.52 -0.49c-0.25,-0.28 -0.23,-0.28 -0.46,-0.58l-6.82 -9.29 -9.34 -12.27c-1.07,-1.42 -2.21,-2.57 -2.94,-4.19l3.24 -0.02zm4.15 -2.57c-13.09,0 -14,-1.62 -7.06,7.64l10.09 13.65c-1.85,0.13 -24.5,0.31 -26.05,-0.14 -1.47,-0.42 -7.62,-7.31 -8.66,-8.45l-4.2 -4.18c-2.43,-2.68 -5.27,-5.79 -10.98,-6.13 -5.51,-0.32 -11.87,-0.04 -17.47,-0.04 -10.04,0 -19.98,-1.27 -19.95,14.36 0.01,5.64 0.11,11.42 -0.02,17.05 -5,0.18 -7.77,-0.55 -11.55,2.06 -2.39,1.65 -4.71,4.35 -5.01,8.53 -0.27,3.79 3.2,18.29 4.17,22.89 3.14,14.95 6.02,29.99 9.13,45.01 1.83,8.83 1.68,15.32 8.85,18.4 4.02,1.72 20.39,0.99 25.91,0.99 3.25,0 105,0.42 108.42,-0.21 3.84,-0.72 6.51,-2.98 8.01,-5.63 2.07,-3.66 1.55,-7.49 1.55,-11.99l0 -54.14c0,-8.82 0.29,-18.14 -0.02,-26.9 -0.07,-2.23 -0.46,-3.65 -1.42,-5.45 -3.02,-5.67 -8.33,-5.96 -14.19,-5.96 -9,0 -18,0 -26.99,0l7.61 -10.4c1.07,-1.43 7.6,-9.03 6.59,-10.43 -0.86,-1.18 -7.84,-0.09 -11.18,-0.68 0,-5.15 0.55,-30.15 -0.31,-32.88 -2.6,-0.42 -23.13,-0.46 -24.96,0.15 -0.91,3.03 -0.31,27.51 -0.31,32.88z"/>
   <path class="fil2" d="M124.34 24.4c1.16,0.31 0.61,-0.44 0.8,1.17l-0.04 29.37c-0.23,1.03 0.16,0.67 -0.76,1l0 -31.54zm-7.24 32.82l7.24 12.74c0.44,0.72 2.19,2.97 1.8,3.74l6.82 9.29c0.23,0.3 0.21,0.3 0.46,0.58l0.52 0.49c0.03,0.04 0.12,0.11 0.18,0.16 0.96,-0.95 1.75,-2.21 2.57,-3.31l17.5 -23.67c-2.62,-0.01 -8.12,0.56 -9.77,-0.71 -0.9,-1.35 0.42,-27.59 -0.33,-32.51l-20.22 -0.04 -0.09 32.8c-1.71,0.7 -4.44,0.44 -6.68,0.44z"/>
   <path class="fil2" d="M23.71 96.55c0.41,0.15 -0.18,0.54 0.98,-0.44 0.44,-0.37 0.72,-0.73 1.32,-1.17 3.36,-2.43 7.86,-1.83 12.05,-1.83l125.05 0c0.8,0 1.7,0.05 2.47,0.04 2.38,-0.05 0.59,0.15 1.92,-0.39 0.08,-0.03 0.2,-0.08 0.28,-0.15 -4.53,-2.46 -11.74,-1.6 -17.59,-1.6l-113.18 0c-4.14,0 -11.43,-0.73 -13.3,5.54z"/>
   <path class="fil2" d="M182.15 177.55l-0.84 0.72c-1.56,1.43 -3.1,2.58 -5.36,3.05 -3.19,0.66 -109.63,0.24 -122.87,0.24 -4.01,0 -10.58,0.68 -13.62,-3.26 -0.32,-0.42 -0.29,-0.44 -0.45,-0.67l-0.58 -0.78c1.42,6.15 6.04,6.85 12.9,6.85l117.37 0c7.12,0 11.22,-0.27 13.45,-6.15z"/>
   <path class="fil3" d="M155 138.04l0.07 -1.38c-1.89,-1.2 -46.84,-0.59 -52.74,-0.59l-46.46 0c-1.61,0 -5.42,-0.6 -5.41,1.29 0.02,2.27 9.68,1.27 11.7,1.27 22.24,0 44.48,0 66.72,0 4.43,0 24.02,0.71 26.12,-0.59z"/>
   <path class="fil3" d="M155.03 115.05l0.01 -1.39c-2.04,-1.19 -46.67,-0.57 -52.71,-0.57 -13.27,0 -26.55,0 -39.82,0 -2.05,0 -12,-1.01 -12.05,1.24 -0.04,1.88 3.48,1.3 5.06,1.29l86.63 0c3.18,0 10.91,0.73 12.88,-0.57z"/>
   <path class="fil3" d="M52.73 161.62l100.25 0c2.71,0 3.45,-2.56 -0.35,-2.56l-99.55 0 -0.35 0c-2.91,0 -3.45,2.56 0,2.56z"/>
   <path class="fil2" d="M126.14 73.7c0.39,-0.77 -1.36,-3.02 -1.8,-3.74l-7.24 -12.74 -3.24 0.02c0.73,1.62 1.87,2.77 2.94,4.19l9.34 12.27z"/>
   <path class="fil2" d="M124.34 55.94c0.92,-0.33 0.53,0.03 0.76,-1l0.04 -29.37c-0.19,-1.61 0.36,-0.86 -0.8,-1.17l0 31.54z"/>
   <path class="fil3" d="M127.12 79.4c-1.09,-1.23 -2.14,-0.86 -3.82,-0.84 -6.28,0.07 -12.59,0.01 -18.87,0.01 -9.94,0 -8.12,-0.77 -13.04,-5.7 -2.8,-2.8 -10.08,-10.66 -12.03,-11.73 -1.08,-0.6 -2.05,-1.01 -3.28,-1.28 -2.6,-0.57 -25.07,-0.42 -27.86,-0.28 -5.51,0.28 -8.68,4.3 -8.7,10.02 -0.02,6.21 -0.11,12.58 0.02,18.79 8.16,0.63 18.75,0.06 27.16,0.06l81.74 0c8.52,0 18.48,-1.61 23.03,4.23 3.29,4.21 3.98,15.83 4.94,22.3l6.2 41.64c0.15,1.07 0.3,2 0.45,3.08l0.76 2.69c0.37,-10.34 0.05,-21.25 0.05,-31.65 0,-10.36 0,-20.73 0,-31.09 0,-10.91 2.15,-21.09 -10.63,-21.09 -10.36,0 -20.72,0.01 -31.09,0.01 -1.09,0.23 -3.57,4.12 -4.22,4.99 -2.04,2.72 -2.48,4.21 -4.64,4.21l-6.17 -8.37z"/>
   <path class="fil1" d="M23.71 96.55c1.87,-6.27 9.16,-5.54 13.3,-5.54l113.18 0c5.85,0 13.06,-0.86 17.59,1.6 2.81,2.76 3.26,3.3 4,8.52l8.14 54.73c0.71,4.66 3.42,18.03 2.23,21.69 -2.23,5.88 -6.33,6.15 -13.45,6.15l-117.37 0c-6.86,0 -11.48,-0.7 -12.9,-6.85 -1.35,-3.21 -3.22,-15.4 -4.09,-19.65l-8.16 -40.11c-0.81,-4.01 -4.46,-17.62 -2.47,-20.54zm109.58 -8.78c2.16,0 2.6,-1.49 4.64,-4.21 0.65,-0.87 3.13,-4.76 4.22,-4.99 10.37,0 20.73,-0.01 31.09,-0.01 12.78,0 10.63,10.18 10.63,21.09 0,10.36 0,20.73 0,31.09 0,10.4 0.32,21.31 -0.05,31.65l-0.76 -2.69c-0.15,-1.08 -0.3,-2.01 -0.45,-3.08l-6.2 -41.64c-0.96,-6.47 -1.65,-18.09 -4.94,-22.3 -4.55,-5.84 -14.51,-4.23 -23.03,-4.23l-81.74 0c-8.41,0 -19,0.57 -27.16,-0.06 -0.13,-6.21 -0.04,-12.58 -0.02,-18.79 0.02,-5.72 3.19,-9.74 8.7,-10.02 2.79,-0.14 25.26,-0.29 27.86,0.28 1.23,0.27 2.2,0.68 3.28,1.28 1.95,1.07 9.23,8.93 12.03,11.73 4.92,4.93 3.1,5.7 13.04,5.7 6.28,0 12.59,0.06 18.87,-0.01 1.68,-0.02 2.73,-0.39 3.82,0.84l6.17 8.37zm-16.19 -30.55c2.24,0 4.97,0.26 6.68,-0.44l0.09 -32.8 20.22 0.04c0.75,4.92 -0.57,31.16 0.33,32.51 1.65,1.27 7.15,0.7 9.77,0.71l-17.5 23.67c-0.82,1.1 -1.61,2.36 -2.57,3.31 -0.06,-0.05 -0.15,-0.12 -0.18,-0.16l-0.52 -0.49c-0.25,-0.28 -0.23,-0.28 -0.46,-0.58l-6.82 -9.29 -9.34 -12.27c-1.07,-1.42 -2.21,-2.57 -2.94,-4.19l3.24 -0.02zm4.15 -2.57c-13.09,0 -14,-1.62 -7.06,7.64l10.09 13.65c-1.85,0.13 -24.5,0.31 -26.05,-0.14 -1.47,-0.42 -7.62,-7.31 -8.66,-8.45l-4.2 -4.18c-2.43,-2.68 -5.27,-5.79 -10.98,-6.13 -5.51,-0.32 -11.87,-0.04 -17.47,-0.04 -10.04,0 -19.98,-1.27 -19.95,14.36 0.01,5.64 0.11,11.42 -0.02,17.05 -5,0.18 -7.77,-0.55 -11.55,2.06 -2.39,1.65 -4.71,4.35 -5.01,8.53 -0.27,3.79 3.2,18.29 4.17,22.89 3.14,14.95 6.02,29.99 9.13,45.01 1.83,8.83 1.68,15.32 8.85,18.4 4.02,1.72 20.39,0.99 25.91,0.99 3.25,0 105,0.42 108.42,-0.21 3.84,-0.72 6.51,-2.98 8.01,-5.63 2.07,-3.66 1.55,-7.49 1.55,-11.99l0 -54.14c0,-8.82 0.29,-18.14 -0.02,-26.9 -0.07,-2.23 -0.46,-3.65 -1.42,-5.45 -3.02,-5.67 -8.33,-5.96 -14.19,-5.96 -9,0 -18,0 -26.99,0l7.61 -10.4c1.07,-1.43 7.6,-9.03 6.59,-10.43 -0.86,-1.18 -7.84,-0.09 -11.18,-0.68 0,-5.15 0.55,-30.15 -0.31,-32.88 -2.6,-0.42 -23.13,-0.46 -24.96,0.15 -0.91,3.03 -0.31,27.51 -0.31,32.88z"/>
   <path class="fil2" d="M124.34 24.4c1.16,0.31 0.61,-0.44 0.8,1.17l-0.04 29.37c-0.23,1.03 0.16,0.67 -0.76,1l0 -31.54zm-7.24 32.82l7.24 12.74c0.44,0.72 2.19,2.97 1.8,3.74l6.82 9.29c0.23,0.3 0.21,0.3 0.46,0.58l0.52 0.49c0.03,0.04 0.12,0.11 0.18,0.16 0.96,-0.95 1.75,-2.21 2.57,-3.31l17.5 -23.67c-2.62,-0.01 -8.12,0.56 -9.77,-0.71 -0.9,-1.35 0.42,-27.59 -0.33,-32.51l-20.22 -0.04 -0.09 32.8c-1.71,0.7 -4.44,0.44 -6.68,0.44z"/>
   <path class="fil2" d="M182.15 177.55l-0.84 0.72c-1.56,1.43 -3.1,2.58 -5.36,3.05 -3.19,0.66 -109.63,0.24 -122.87,0.24 -4.01,0 -10.58,0.68 -13.62,-3.26 -0.32,-0.42 -0.29,-0.44 -0.45,-0.67l-0.58 -0.78c1.42,6.15 6.04,6.85 12.9,6.85l117.37 0c7.12,0 11.22,-0.27 13.45,-6.15z"/>
   <path class="fil3" d="M155 138.04l0.07 -1.38c-1.89,-1.2 -46.84,-0.59 -52.74,-0.59l-46.46 0c-1.61,0 -5.42,-0.6 -5.41,1.29 0.02,2.27 9.68,1.27 11.7,1.27 22.24,0 44.48,0 66.72,0 4.43,0 24.02,0.71 26.12,-0.59z"/>
   <path class="fil3" d="M155.03 115.05l0.01 -1.39c-2.04,-1.19 -46.67,-0.57 -52.71,-0.57 -13.27,0 -26.55,0 -39.82,0 -2.05,0 -12,-1.01 -12.05,1.24 -0.04,1.88 3.48,1.3 5.06,1.29l86.63 0c3.18,0 10.91,0.73 12.88,-0.57z"/>
   <path class="fil3" d="M52.73 161.62l100.25 0c2.71,0 3.45,-2.56 -0.35,-2.56l-99.55 0 -0.35 0c-2.91,0 -3.45,2.56 0,2.56z"/>
   <path class="fil2" d="M126.14 73.7c0.39,-0.77 -1.36,-3.02 -1.8,-3.74l-7.24 -12.74 -3.24 0.02c0.73,1.62 1.87,2.77 2.94,4.19l9.34 12.27z"/>
   <path class="fil2" d="M124.34 55.94c0.92,-0.33 0.53,0.03 0.76,-1l0.04 -29.37c-0.19,-1.61 0.36,-0.86 -0.8,-1.17l0 31.54z"/>
  </g>
 </g>
</svg>
