<?xml version="1.0" encoding="UTF-8"?>
<!DOCTYPE svg PUBLIC "-//W3C//DTD SVG 1.1//EN" "http://www.w3.org/Graphics/SVG/1.1/DTD/svg11.dtd">
<!-- Creator: CorelDRAW 2020 (64-Bit) -->
<svg xmlns="http://www.w3.org/2000/svg" xml:space="preserve" width="2.0318mm" height="2.0318mm" version="1.1" style="shape-rendering:geometricPrecision; text-rendering:geometricPrecision; image-rendering:optimizeQuality; fill-rule:evenodd; clip-rule:evenodd"
viewBox="0 0 203.18 203.18"
 xmlns:xlink="http://www.w3.org/1999/xlink"
 xmlns:xodm="http://www.corel.com/coreldraw/odm/2003">
 <defs>
  <style type="text/css">
   <![CDATA[
    .fil1 {fill:#BDBFC1}
    .fil2 {fill:#243251}
    .fil0 {fill:#062054}
   ]]>
  </style>
 </defs>
 <g id="Capa_x0020_1">
  <metadata id="CorelCorpID_0Corel-Layer"/>
  <g id="_2222353490416">
   <path class="fil0" d="M134.75 23.84c1.17,0.71 0.93,1.05 1.94,2.03 2.61,2.52 7.66,8.46 10.42,11.48l5.21 5.73c1.33,1.65 9.79,10.34 10.43,11.61l-20.02 0.01c-6.44,-0.02 -7.95,-2.55 -7.97,-7.78l-0.01 -23.08zm-93.68 37.4l7.29 -0.02c-0.12,-10.22 -0.01,-20.49 -0.01,-30.72 0,-5.56 -0.3,-9.29 3.99,-11.29 2.33,-1.09 11.37,-0.63 14.57,-0.63 20.35,0 40.89,-0.28 61.21,0.01 0.38,2.35 0.11,7.36 0.11,9.99 0,3.38 0,6.76 0,10.13 0.01,6.21 -1,13.73 2.73,17.79 4.2,4.59 7.79,4.75 15.6,4.75 3.23,0 18.51,-0.2 20.35,0.09 0.34,6.93 0.03,14.69 0.03,21.71l0 88.14c0,9.21 -0.45,11.8 -10.25,11.79 -7.39,0 -14.78,0 -22.17,0 -1.82,0 -3.65,0.01 -5.47,0 -5.02,-0.01 -2.82,-0.23 -8.09,5.58 -0.46,0.51 -0.86,0.99 -1.15,1.68 11.31,-0.21 22.81,-0.01 34.14,-0.01 5.86,0 9.9,0.55 14.28,-2.57 3.01,-2.15 5.8,-5.82 5.96,-11.26 0.34,-11.21 0,-22.95 0.01,-34.23l-0.03 -85.63c-0.22,-1.11 -1.09,-1.34 -1.86,-2.24l-32.67 -36.03c-1.74,-2.2 -4.67,-4.73 -6.15,-6.95 -23.54,-0.36 -47.38,-0.01 -70.96,-0.01 -6.28,0 -10.58,-0.69 -15.33,2.49 -3.23,2.16 -6.02,6.07 -6.12,11.77 -0.22,11.84 0.08,23.81 -0.01,35.67z"/>
   <path class="fil1" d="M68.94 70.53l3.85 0.11 -0.01 15.79 9.69 0.03 0.03 3.23 -13.58 -0.09 0.02 -19.07zm19.11 12.53c0.55,2.35 1.28,3.58 4.04,3.69 2.14,0.08 4.83,-1.22 3.72,-3.53 -1,-2.06 -7.98,-1.61 -9.94,-4.89 -5.25,-8.77 12.98,-12.28 13.48,-2.39l-3.7 0.07c-0.74,-1.17 -0.38,-1.72 -1.58,-2.34 -3.37,-1.75 -8.16,1.66 -3.55,3.31 3.87,1.37 8.3,1.4 9.24,5.51 2.11,9.21 -14.57,10.72 -15.43,1.11 0.94,-0.42 2.52,-0.42 3.72,-0.54zm-32.64 -3.57c-1.7,-3.04 -4.26,-5.97 -5.81,-9.12l4.55 0c0.29,0.68 2.92,4.9 3.73,5.55 1.49,-1.8 2.4,-3.75 3.83,-5.54l4.34 0.04c-0.65,1.4 -2.16,3.37 -3.1,4.84 -0.96,1.52 -2.93,3.92 -2.59,4.77 0.35,0.88 2.56,3.78 3.19,4.74 0.95,1.46 2.47,3.4 3.11,4.91l-4.62 -0.08 -4.16 -6.26 -0.67 0.69c-4.59,6.09 -1.37,5.72 -8.24,5.56 1.19,-2.33 5.8,-8.24 6.44,-10.1zm-17.11 -15.62c-2.11,0.74 -1.49,2.75 -1.49,5.22l0 19.98c0,7.37 -0.54,6.25 6.84,6.26l39.96 0c3.64,0 24.96,0.41 26.68,-0.12 1.91,-0.59 1.35,-3.44 1.35,-5.31l0 -19.99c0,-7.32 0.33,-6.17 -6.95,-6.17 -10.56,0 -64.75,-0.45 -66.39,0.13z"/>
   <path class="fil0" d="M94.79 171.72c-2.15,0.16 -6.85,-0.4 -8.34,0.37 -0.25,1.33 0.17,1.31 2.06,3.5l13.42 16.14c0.76,0.89 4.98,6.14 5.49,6.26 0.95,-0.16 1.11,-0.41 1.63,-1.09l15.06 -18.06c0.97,-1.12 1.67,-2.04 2.74,-3.28 0.54,-0.64 0.7,-0.86 1.38,-1.63 0.55,-0.63 0.8,-1.06 0.64,-2.03l-8.36 -0.14 -0.01 -27.16 -25.74 -0.11 0.03 27.23z"/>
   <path class="fil2" d="M95.52 190.21l-5.8 -7.24c-10.47,0.17 -21.08,0.01 -31.57,0.01 -3.86,0.01 -9.12,-0.21 -9.75,-6.09 -0.36,-3.37 -0.05,-41.88 -0.05,-47.31 -0.01,-6 0.3,-27.58 -0.06,-31.7l-7.12 0c-0.4,3.41 -0.09,30.7 -0.09,36.63 0,12.22 0,24.45 0,36.68 0,6.88 0.05,10.44 3.82,14.62 1.12,1.23 3.25,2.79 5.46,3.58 2.74,0.97 5.32,0.84 8.34,0.84 12.01,0 24.93,0.46 36.82,-0.02z"/>
  </g>
 </g>
</svg>
