<?xml version="1.0" encoding="UTF-8"?>
<!DOCTYPE svg PUBLIC "-//W3C//DTD SVG 1.1//EN" "http://www.w3.org/Graphics/SVG/1.1/DTD/svg11.dtd">
<!-- Creator: CorelDRAW 2020 (64-Bit) -->
<svg xmlns="http://www.w3.org/2000/svg" xml:space="preserve" width="2.0318mm" height="2.0318mm" version="1.1" style="shape-rendering:geometricPrecision; text-rendering:geometricPrecision; image-rendering:optimizeQuality; fill-rule:evenodd; clip-rule:evenodd"
viewBox="0 0 203.18 203.18"
 xmlns:xlink="http://www.w3.org/1999/xlink"
 xmlns:xodm="http://www.corel.com/coreldraw/odm/2003">
 <defs>
  <style type="text/css">
   <![CDATA[
    .fil0 {fill:#062054}
   ]]>
  </style>
 </defs>
 <g id="Capa_x0020_1">
  <metadata id="CorelCorpID_0Corel-Layer"/>
  <g id="_2222353528960">
   <path class="fil0" d="M31.7 41.52c14.91,0 29.82,0 44.73,0 11.14,0 21.32,-2.07 27.22,6.4 1.55,2.24 2.81,5.41 2.72,8.58 11.14,0 22.32,-0.13 33.45,-0.01 5.56,0.06 11.23,0.07 16.8,0.01 3.06,-0.03 4.74,0.05 6.67,1.7 5.79,4.96 1.59,13.2 -4.42,13.2l-52.46 0 -0.04 14.89 51.82 0c6.48,0 9.2,6.03 7.26,10.41 -1.16,2.63 -3.8,4.54 -6.81,4.54l-52.29 0 0.04 14.97c5.33,-0.26 11.21,-0.03 16.6,-0.03l33.61 0c3.09,-0.01 4.7,-0.01 6.72,1.72 3.77,3.24 3.47,8.59 0.17,11.36 -1.92,1.6 -3.62,1.83 -6.67,1.82l-33.61 0c-5.35,0 -11.53,0.28 -16.79,-0.04 -0.87,10.17 2.67,20.31 -5.76,26.68 -0.82,0.62 -1.06,0.85 -1.89,1.28 -5.01,2.6 -8.93,1.96 -14.62,1.96 -17.48,0 -34.97,0 -52.45,0 0.17,5.36 0.07,11.22 0,16.62 -0.07,6.19 -0.3,10.29 4.29,12.47 2.61,1.25 12.5,0.7 16.14,0.7l117.41 0c3.99,0 9.63,0.51 11.17,-5.64 0.64,-2.56 0.23,-13.22 0.23,-16.65l0 -134.21c0,-3.64 0.45,-13.79 -0.18,-16.69 -1.38,-6.25 -7.09,-5.83 -10.99,-5.83l-117.41 0c-3.83,0 -13.53,-0.53 -16.21,0.62 -5.19,2.24 -4.48,7.59 -4.43,12.38 0.05,5.49 0.13,11.33 -0.02,16.79z"/>
   <path class="fil0" d="M37.46 101.24c-0.48,1.21 -3.43,5.24 -4.43,6.78l-13.23 20.1 17.71 0.05c2.43,-3.16 7.57,-11.62 9.05,-13.21 0.03,-0.02 0.08,-0.07 0.12,-0.11 0.75,0.79 1.55,2.21 2.25,3.22l6.85 10.14 17.69 0c-0.22,-0.86 -1.54,-2.47 -2.07,-3.31 -3.27,-5.17 -7.89,-11.65 -11.11,-16.82l-4.48 -6.84c0.99,-2.17 17.38,-25.72 17.66,-26.97 -4.31,0.22 -12.83,0.03 -17.7,0.04 -1.14,1.47 -8.32,12.55 -9.09,13.26l-4.55 -6.53c-0.78,-1.2 -1.48,-2.26 -2.28,-3.4 -0.87,-1.24 -1.46,-2.25 -2.3,-3.33l-17.75 0 3.11 4.84c0.37,0.59 0.78,1.15 1.19,1.78l1.08 1.61c0.41,0.66 0.72,1.08 1.09,1.64 0.75,1.13 1.49,2.31 2.25,3.43l8.94 13.63z"/>
  </g>
 </g>
</svg>
