<?xml version="1.0" encoding="UTF-8"?>
<!DOCTYPE svg PUBLIC "-//W3C//DTD SVG 1.1//EN" "http://www.w3.org/Graphics/SVG/1.1/DTD/svg11.dtd">
<!-- Creator: CorelDRAW 2020 (64-Bit) -->
<svg xmlns="http://www.w3.org/2000/svg" xml:space="preserve" width="2.0318mm" height="2.0318mm" version="1.1" style="shape-rendering:geometricPrecision; text-rendering:geometricPrecision; image-rendering:optimizeQuality; fill-rule:evenodd; clip-rule:evenodd"
viewBox="0 0 203.18 203.18"
 xmlns:xlink="http://www.w3.org/1999/xlink"
 xmlns:xodm="http://www.corel.com/coreldraw/odm/2003">
 <defs>
  <style type="text/css">
   <![CDATA[
    .fil0 {fill:black}
    .fil2 {fill:#062054}
    .fil1 {fill:#062054}
   ]]>
  </style>
 </defs>
 <g id="Capa_x0020_1">
  <metadata id="CorelCorpID_0Corel-Layer"/>
  <g id="_1646497742304">
   <path class="fil0" d="M180.17 33.28l-158.25 0.74 -0.15 0.66c0.01,0.05 0.05,0.33 0.07,0.39l60.07 57.22c4.34,4.97 14.74,15.76 26.94,10.98 7.94,-3.11 50.86,-45.96 63.17,-57.08 15.22,-13.74 13.57,-12.49 8.15,-12.91z"/>
   <path class="fil1" d="M82.27 108.59c-3.08,3.59 -10.8,8.86 -15.67,12.52 -5.36,4.01 -10.21,7.63 -15.58,11.65 -4.32,3.24 -28.23,19.62 -31.13,24.08l164.97 -0.29c-3.21,-3.96 -11.85,-9.57 -16.1,-12.73 -7.68,-5.71 -42.28,-30.56 -46.28,-35.23 -7.29,3.21 -9.92,6.97 -20.66,6.81 -9.93,-0.14 -12.71,-3.78 -19.55,-6.81z"/>
   <path class="fil2" d="M12.14 150.04c7.59,-2.4 52.42,-39.53 64.82,-46.56 -2.89,-5.21 -4.22,-4.19 -8.24,-8.23l-24.04 -23.54c-5.61,-5.54 -11.42,-9.07 -16.62,-15.16 -2.83,-3.32 -4.83,-5 -8.02,-7.86 -1.67,-1.5 -2.53,-2.28 -4.33,-3.8 -4.4,-3.7 -2.76,-2.51 -3.51,-1.83 -1.66,2.91 -1.25,8.18 -1.2,12.33 0.28,24.72 -1.2,73.35 1.14,94.65z"/>
   <path class="fil2" d="M193.75 55.39c0.03,-2.52 0.12,-6.87 -0.16,-9.25 -0.64,-5.23 -0.87,-4.06 -2.75,-2.86l-27.21 25.19c-3.48,3.13 -5.49,5.79 -8.95,9.14 -4.12,3.97 -24.63,21.76 -26.85,25.87 13.55,7.88 55.95,43.82 65.27,46.59 1.13,-32.18 0.25,-62.78 0.65,-94.68z"/>
  </g>
 </g>
</svg>
