<?xml version="1.0" encoding="UTF-8"?>
<!DOCTYPE svg PUBLIC "-//W3C//DTD SVG 1.1//EN" "http://www.w3.org/Graphics/SVG/1.1/DTD/svg11.dtd">
<!-- Creator: CorelDRAW 2020 (64-Bit) -->
<svg xmlns="http://www.w3.org/2000/svg" xml:space="preserve" width="2.0318mm" height="2.0318mm" version="1.1" style="shape-rendering:geometricPrecision; text-rendering:geometricPrecision; image-rendering:optimizeQuality; fill-rule:evenodd; clip-rule:evenodd"
viewBox="0 0 203.18 203.18"
 xmlns:xlink="http://www.w3.org/1999/xlink"
 xmlns:xodm="http://www.corel.com/coreldraw/odm/2003">
 <defs>
  <style type="text/css">
   <![CDATA[
    .fil0 {fill:#062054}
   ]]>
  </style>
 </defs>
 <g id="Capa_x0020_1">
  <metadata id="CorelCorpID_0Corel-Layer"/>
  <g id="_2222343625616">
   <path class="fil0" d="M98.54 184.89c1.96,1.93 9.05,9.46 10.33,9.97 0.78,-0.97 1.69,-1.62 2.54,-2.61l20.26 -19.99c2.65,-2.91 16.82,-16.29 17.39,-17.47l-19.88 -0.01 0.09 -47.94c-2.41,-0.49 -8.8,-0.17 -11.64,-0.17 -3.65,0.01 -27.88,-0.28 -29.48,0.18l-0.04 10.33c-0.08,11.98 0.26,26.02 -0.04,37.63l-19.83 0.01 30.3 30.07z"/>
   <path class="fil0" d="M61.87 65.28l-0.04 -23.56c2.17,-0.65 10.75,-0.46 14.19,1.29 7.49,3.81 7.46,16.84 0.02,20.82 -2.83,1.52 -10.66,2.09 -14.17,1.45zm-12.48 -8.55c-0.74,0.39 -2.32,0.23 -3.39,0.24l0.03 7.68c-0.05,1.39 0.07,0.32 -0.5,0.74l-4.62 -0.03 -0.03 -23.67c1.47,-0.34 7.9,-0.21 9.58,-0.01 11.05,1.35 7.81,15.94 -1.07,15.05zm37.22 8.64c-0.48,-0.28 -0.24,0.06 -0.29,-0.96 -0.02,-0.44 0.02,-1.12 0.02,-1.59 0.02,-4.56 -0.23,-19.01 0.08,-21.28 1.26,-0.53 9.59,-0.27 12.13,-0.26 2.23,0 1.41,0.18 1.68,0.35l-0.12 4.09 -8.66 -0.01 0.03 6.11 8.05 0.03 0 4.07 -8.05 0.06 -0.01 9.37 -4.86 0.02zm-61.29 -31.87l0.06 40.02 17.04 0.09 5.97 -0.04 67.2 -0.02 0.02 -40.12 -67.16 -0.02 -6 0 -17.13 0.09z"/>
   <path class="fil0" d="M134.75 16.68c1.17,0.88 2.78,2.74 3.95,3.9 2.79,2.77 27.1,26.84 27.74,27.9l-31.75 -0.05 0.06 -31.75zm-92.3 16.73l6 0 -0.03 -18.77c0.36,-0.5 -0.54,-0.31 0.97,-0.47l3.94 0.02c10.18,0 73.66,-0.33 75.46,0.16l0.02 40.18 40.04 -0.03 -0.03 112.35 -17.02 0.13 0.01 5.87 23.01 -0.05 0.01 -124.62 -35.41 -35.57c-1.17,-0.65 -2.42,-2.18 -3.4,-3.21 -1.42,-1.5 -1.97,-1.01 -5.32,-1.02 -29.26,0 -59.15,0.25 -88.23,-0.01l-0.02 25.04z"/>
   <polygon class="fil0" points="48.39,73.57 42.42,73.61 42.45,172.74 65.44,172.86 65.47,166.84 48.41,166.86 "/>
   <path class="fil0" d="M66.95 61.19c6.11,0.01 9.34,-1.24 9.35,-7.78 0.01,-6.63 -3.12,-7.85 -9.43,-7.69l0.08 15.47z"/>
   <path class="fil0" d="M128.81 54.53l-0.02 -40.18c-1.8,-0.49 -65.28,-0.16 -75.46,-0.16l-3.94 -0.02c-1.51,0.16 -0.61,-0.03 -0.97,0.47 1.83,-0.4 16.66,-0.14 19.81,-0.15 20.06,-0.01 40.31,0.21 60.31,-0.06 -0.2,6.46 -0.24,13.74 -0.04,20.21l-0.01 19.29c0.15,0.61 0.11,0.35 0.32,0.6z"/>
   <path class="fil0" d="M48.99 52.63c4.3,-0.71 4.37,-6.23 0.37,-6.77l-3.34 -0.08 -0.04 6.95 3.01 -0.1z"/>
   <path class="fil0" d="M86.61 65.37l-0.07 -23.77 13.69 0.03c-0.27,-0.17 0.55,-0.35 -1.68,-0.35 -2.54,-0.01 -10.87,-0.27 -12.13,0.26 -0.31,2.27 -0.06,16.72 -0.08,21.28 0,0.47 -0.04,1.15 -0.02,1.59 0.05,1.02 -0.19,0.68 0.29,0.96z"/>
   <path class="fil0" d="M48.99 52.63l-3.01 0.1 0.04 -6.95 3.34 0.08c-0.77,-0.49 -2.46,-0.48 -3.56,-0.17l0.1 7.04c0.98,0.47 2.17,0.4 3.09,-0.1z"/>
   <path class="fil0" d="M45.53 65.39c0.57,-0.42 0.45,0.65 0.5,-0.74l-0.03 -7.68c1.07,-0.01 2.65,0.15 3.39,-0.24 -1.07,-0.18 -2.56,-0.27 -3.5,0.22 -0.49,2.5 0.53,6.17 -0.36,8.44z"/>
  </g>
 </g>
</svg>
